<svg width="232" height="164" viewBox="0 0 232 164" fill="none" xmlns="http://www.w3.org/2000/svg">
<path d="M81.0384 9.8712C81.465 7.7243 84.535 7.72431 84.9616 9.87121L92.3162 46.8803C92.6033 48.3247 94.3 48.9741 95.478 48.0904L127.501 24.0684C129.283 22.7316 131.587 24.8706 130.386 26.7468L110.125 58.3906C109.273 59.7204 110.227 61.4662 111.806 61.469L152.321 61.5411C154.592 61.5452 155.1 64.7317 152.942 65.4411L115.236 77.8356C113.703 78.3394 113.367 80.3576 114.654 81.3308L145.403 104.583C147.202 105.944 145.724 108.777 143.579 108.081L104.901 95.5226C103.452 95.0521 102.029 96.3103 102.32 97.8061L109.416 134.35C109.835 136.511 106.967 137.665 105.772 135.817L84.6798 103.175C83.8919 101.955 82.1081 101.955 81.3202 103.175L60.2276 135.817C59.0333 137.665 56.165 136.511 56.5844 134.35L63.6802 97.8061C63.9706 96.3103 62.5485 95.0521 61.0992 95.5226L22.4211 108.081C20.2761 108.777 18.7983 105.944 20.5972 104.583L51.346 81.3308C52.6329 80.3576 52.297 78.3394 50.7642 77.8356L13.0581 65.4411C10.9001 64.7317 11.4075 61.5452 13.6791 61.5411L54.1943 61.469C55.7734 61.4662 56.7265 59.7204 55.8751 58.3906L35.6142 26.7468C34.4129 24.8706 36.7165 22.7316 38.4986 24.0684L70.522 48.0904C71.7 48.9741 73.3967 48.3247 73.6838 46.8803L81.0384 9.8712Z" fill="url(#paint0_linear_194_14)"/>
<path d="M148.51 25.1636C148.545 24.9839 148.618 24.9041 148.677 24.8595C148.75 24.8038 148.863 24.761 149 24.761C149.137 24.761 149.25 24.8038 149.323 24.8595C149.382 24.9041 149.455 24.9839 149.49 25.1636L156.845 62.1727C157.347 64.7004 160.317 65.8368 162.378 64.2903L194.401 40.2684C194.552 40.1551 194.661 40.1458 194.733 40.1526C194.825 40.1612 194.939 40.2068 195.042 40.3019C195.144 40.3971 195.198 40.5074 195.213 40.5985C195.226 40.6703 195.224 40.779 195.123 40.9379L174.862 72.5817C173.372 74.909 175.04 77.9641 177.803 77.969L218.318 78.0411C218.513 78.0415 218.605 78.1015 218.657 78.1501C218.725 78.2131 218.789 78.3208 218.811 78.4625C218.834 78.6042 218.807 78.7263 218.762 78.8071C218.727 78.8696 218.659 78.9552 218.473 79.0161L180.767 91.4106C178.085 92.2924 177.497 95.8241 179.749 97.5272L210.498 120.78C210.652 120.896 210.69 120.998 210.702 121.069C210.719 121.16 210.706 121.284 210.64 121.41C210.574 121.536 210.481 121.617 210.397 121.656C210.331 121.686 210.225 121.714 210.042 121.654L171.364 109.096C168.828 108.272 166.339 110.474 166.847 113.092L173.943 149.636C173.978 149.818 173.941 149.919 173.903 149.982C173.856 150.062 173.767 150.144 173.639 150.195C173.511 150.247 173.39 150.249 173.301 150.225C173.23 150.205 173.133 150.158 173.032 150.003L151.94 117.361C150.561 115.227 147.439 115.227 146.06 117.361L124.968 150.003C124.867 150.158 124.77 150.205 124.699 150.225C124.61 150.249 124.489 150.247 124.361 150.195C124.233 150.144 124.144 150.062 124.097 149.982C124.059 149.919 124.022 149.818 124.057 149.636L131.153 113.092C131.661 110.474 129.172 108.272 126.636 109.096L87.9579 121.654C87.7747 121.714 87.6689 121.686 87.6035 121.656C87.5195 121.617 87.4259 121.536 87.3602 121.41C87.2945 121.284 87.2811 121.16 87.2975 121.069C87.3104 120.998 87.3483 120.896 87.5019 120.78L118.251 97.5272C120.503 95.8241 119.915 92.2924 117.233 91.4106L79.5265 79.0161C79.3412 78.9552 79.2725 78.8696 79.238 78.8071C79.1932 78.7263 79.1663 78.6042 79.1889 78.4625C79.2114 78.3208 79.275 78.2131 79.3426 78.1501C79.3948 78.1015 79.4867 78.0415 79.6818 78.0411L120.197 77.969C122.96 77.9641 124.628 74.909 123.138 72.5817L102.877 40.9379C102.776 40.779 102.774 40.6703 102.787 40.5985C102.802 40.5074 102.856 40.3971 102.958 40.3019C103.061 40.2068 103.175 40.1612 103.267 40.1526C103.339 40.1458 103.448 40.1551 103.599 40.2684L135.622 64.2903C137.683 65.8368 140.653 64.7004 141.155 62.1727L148.51 25.1636Z" stroke="#6DD1FE" stroke-width="3"/>
<defs>
<linearGradient id="paint0_linear_194_14" x1="39" y1="2.09451e-06" x2="110.5" y2="138.5" gradientUnits="userSpaceOnUse">
<stop stop-color="#96EAFD"/>
<stop offset="1" stop-color="#29A5FF"/>
</linearGradient>
</defs>
</svg>
