<svg width="334" height="235" viewBox="0 0 334 235" fill="none" xmlns="http://www.w3.org/2000/svg">
<path d="M232 0L233.123 3.45492H236.755L233.816 5.59017L234.939 9.04508L232 6.90983L229.061 9.04508L230.184 5.59017L227.245 3.45492H230.877L232 0Z" fill="#C4C4C4"/>
<path d="M184 19L185.123 22.4549H188.755L185.816 24.5902L186.939 28.0451L184 25.9098L181.061 28.0451L182.184 24.5902L179.245 22.4549H182.877L184 19Z" fill="#C4C4C4"/>
<path d="M136 0L137.123 3.45492H140.755L137.816 5.59017L138.939 9.04508L136 6.90983L133.061 9.04508L134.184 5.59017L131.245 3.45492H134.877L136 0Z" fill="#C4C4C4"/>
<path d="M116 24L117.123 27.4549H120.755L117.816 29.5902L118.939 33.0451L116 30.9098L113.061 33.0451L114.184 29.5902L111.245 27.4549H114.877L116 24Z" fill="#C4C4C4"/>
<path d="M79 0L80.1226 3.45492H83.7553L80.8164 5.59017L81.9389 9.04508L79 6.90983L76.0611 9.04508L77.1836 5.59017L74.2447 3.45492H77.8774L79 0Z" fill="#C4C4C4"/>
<path d="M15 10L16.1226 13.4549H19.7553L16.8164 15.5902L17.9389 19.0451L15 16.9098L12.0611 19.0451L13.1836 15.5902L10.2447 13.4549H13.8774L15 10Z" fill="#C4C4C4"/>
<path d="M53 66L54.1226 69.4549H57.7553L54.8164 71.5902L55.9389 75.0451L53 72.9098L50.0611 75.0451L51.1836 71.5902L48.2447 69.4549H51.8774L53 66Z" fill="#C4C4C4"/>
<path d="M61 126L62.1226 129.455H65.7553L62.8164 131.59L63.9389 135.045L61 132.91L58.0611 135.045L59.1836 131.59L56.2447 129.455H59.8774L61 126Z" fill="#C4C4C4"/>
<path d="M10 76L11.1226 79.4549H14.7553L11.8164 81.5902L12.9389 85.0451L10 82.9098L7.06107 85.0451L8.18364 81.5902L5.24472 79.4549H8.87743L10 76Z" fill="#C4C4C4"/>
<path d="M20 116L21.1226 119.455H24.7553L21.8164 121.59L22.9389 125.045L20 122.91L17.0611 125.045L18.1836 121.59L15.2447 119.455H18.8774L20 116Z" fill="#C4C4C4"/>
<path d="M5 210L6.12257 213.455H9.75528L6.81636 215.59L7.93893 219.045L5 216.91L2.06107 219.045L3.18364 215.59L0.244718 213.455H3.87743L5 210Z" fill="#C4C4C4"/>
<path d="M63 225L64.1226 228.455H67.7553L64.8164 230.59L65.9389 234.045L63 231.91L60.0611 234.045L61.1836 230.59L58.2447 228.455H61.8774L63 225Z" fill="#C4C4C4"/>
<path d="M33 162L34.1226 165.455H37.7553L34.8164 167.59L35.9389 171.045L33 168.91L30.0611 171.045L31.1836 167.59L28.2447 165.455H31.8774L33 162Z" fill="#C4C4C4"/>
<path d="M63 30L64.1226 33.4549H67.7553L64.8164 35.5902L65.9389 39.0451L63 36.9098L60.0611 39.0451L61.1836 35.5902L58.2447 33.4549H61.8774L63 30Z" fill="#C4C4C4"/>
<path d="M213 0L214.123 3.45492H217.755L214.816 5.59017L215.939 9.04508L213 6.90983L210.061 9.04508L211.184 5.59017L208.245 3.45492H211.877L213 0Z" fill="#C4C4C4"/>
<path d="M252 0L253.123 3.45492H256.755L253.816 5.59017L254.939 9.04508L252 6.90983L249.061 9.04508L250.184 5.59017L247.245 3.45492H250.877L252 0Z" fill="#C4C4C4"/>
<path d="M266 40L267.123 43.4549H270.755L267.816 45.5902L268.939 49.0451L266 46.9098L263.061 49.0451L264.184 45.5902L261.245 43.4549H264.877L266 40Z" fill="#C4C4C4"/>
<path d="M319 0L320.123 3.45492H323.755L320.816 5.59017L321.939 9.04508L319 6.90983L316.061 9.04508L317.184 5.59017L314.245 3.45492H317.877L319 0Z" fill="#C4C4C4"/>
<path d="M294 29L295.123 32.4549H298.755L295.816 34.5902L296.939 38.0451L294 35.9098L291.061 38.0451L292.184 34.5902L289.245 32.4549H292.877L294 29Z" fill="#C4C4C4"/>
<path d="M299 66L300.123 69.4549H303.755L300.816 71.5902L301.939 75.0451L299 72.9098L296.061 75.0451L297.184 71.5902L294.245 69.4549H297.877L299 66Z" fill="#C4C4C4"/>
<path d="M295 101L296.123 104.455H299.755L296.816 106.59L297.939 110.045L295 107.91L292.061 110.045L293.184 106.59L290.245 104.455H293.877L295 101Z" fill="#C4C4C4"/>
<path d="M290 135L291.123 138.455H294.755L291.816 140.59L292.939 144.045L290 141.91L287.061 144.045L288.184 140.59L285.245 138.455H288.877L290 135Z" fill="#C4C4C4"/>
<path d="M324 135L325.123 138.455H328.755L325.816 140.59L326.939 144.045L324 141.91L321.061 144.045L322.184 140.59L319.245 138.455H322.877L324 135Z" fill="#C4C4C4"/>
<path d="M329 162L330.123 165.455H333.755L330.816 167.59L331.939 171.045L329 168.91L326.061 171.045L327.184 167.59L324.245 165.455H327.877L329 162Z" fill="#C4C4C4"/>
<path d="M324 96L325.123 99.4549H328.755L325.816 101.59L326.939 105.045L324 102.91L321.061 105.045L322.184 101.59L319.245 99.4549H322.877L324 96Z" fill="#C4C4C4"/>
<path d="M262 86L263.123 89.4549H266.755L263.816 91.5902L264.939 95.0451L262 92.9098L259.061 95.0451L260.184 91.5902L257.245 89.4549H260.877L262 86Z" fill="#C4C4C4"/>
<path d="M284 172L285.123 175.455H288.755L285.816 177.59L286.939 181.045L284 178.91L281.061 181.045L282.184 177.59L279.245 175.455H282.877L284 172Z" fill="#C4C4C4"/>
<path d="M256 210L257.123 213.455H260.755L257.816 215.59L258.939 219.045L256 216.91L253.061 219.045L254.184 215.59L251.245 213.455H254.877L256 210Z" fill="#C4C4C4"/>
<path d="M294 215L295.123 218.455H298.755L295.816 220.59L296.939 224.045L294 221.91L291.061 224.045L292.184 220.59L289.245 218.455H292.877L294 215Z" fill="#C4C4C4"/>
<path d="M319 191L320.123 194.455H323.755L320.816 196.59L321.939 200.045L319 197.91L316.061 200.045L317.184 196.59L314.245 194.455H317.877L319 191Z" fill="#C4C4C4"/>
<path d="M329 215L330.123 218.455H333.755L330.816 220.59L331.939 224.045L329 221.91L326.061 224.045L327.184 220.59L324.245 218.455H327.877L329 215Z" fill="#C4C4C4"/>
</svg>
