<svg width="1514" height="572" viewBox="0 0 1514 572" fill="none" xmlns="http://www.w3.org/2000/svg">
<path d="M1364.26 181.152L1367.67 187.567L1374.83 186.305L1369.78 191.532L1373.19 197.947L1366.66 194.762L1361.62 199.988L1362.63 192.793L1356.1 189.608L1363.25 188.347L1364.26 181.152Z" fill="#D3CAFF"/>
<path d="M173.737 163.152L174.748 170.347L181.903 171.608L175.373 174.793L176.384 181.988L171.337 176.762L164.807 179.947L168.218 173.532L163.171 168.305L170.326 169.567L173.737 163.152Z" fill="#D3CAFF"/>
<path d="M362 293L364.245 299.91H371.511L365.633 304.18L367.878 311.09L362 306.82L356.122 311.09L358.367 304.18L352.489 299.91H359.755L362 293Z" fill="#D3CAFF"/>
<path d="M152 324L154.245 330.91H161.511L155.633 335.18L157.878 342.09L152 337.82L146.122 342.09L148.367 335.18L142.489 330.91H149.755L152 324Z" fill="#D3CAFF"/>
<path d="M37.2636 476.152L40.6745 482.567L47.8296 481.305L42.7826 486.532L46.1935 492.947L39.6634 489.762L34.6164 494.988L35.6275 487.793L29.0974 484.608L36.2525 483.347L37.2636 476.152Z" fill="#D3CAFF"/>
<path d="M10.2636 99.1519L13.6745 105.567L20.8296 104.305L15.7826 109.532L19.1935 115.947L12.6634 112.762L7.61638 117.988L8.62753 110.793L2.09741 107.608L9.25245 106.347L10.2636 99.1519Z" fill="#D3CAFF"/>
<path d="M254.264 32.1519L257.675 38.5669L264.83 37.3053L259.783 42.5316L263.193 48.9466L256.663 45.7617L251.616 50.988L252.628 43.7932L246.097 40.6083L253.252 39.3467L254.264 32.1519Z" fill="#D3CAFF"/>
<path d="M12 375L14.2451 381.91H21.5106L15.6327 386.18L17.8779 393.09L12 388.82L6.12215 393.09L8.36729 386.18L2.48944 381.91H9.75486L12 375Z" fill="#D3CAFF"/>
<path d="M266 510L268.245 516.91H275.511L269.633 521.18L271.878 528.09L266 523.82L260.122 528.09L262.367 521.18L256.489 516.91H263.755L266 510Z" fill="#D3CAFF"/>
<path d="M468 375L470.245 381.91H477.511L471.633 386.18L473.878 393.09L468 388.82L462.122 393.09L464.367 386.18L458.489 381.91H465.755L468 375Z" fill="#D3CAFF"/>
<path d="M522 483L524.245 489.91H531.511L525.633 494.18L527.878 501.09L522 496.82L516.122 501.09L518.367 494.18L512.489 489.91H519.755L522 483Z" fill="#D3CAFF"/>
<path d="M502 109L504.245 115.91H511.511L505.633 120.18L507.878 127.09L502 122.82L496.122 127.09L498.367 120.18L492.489 115.91H499.755L502 109Z" fill="#D3CAFF"/>
<path d="M392 151L394.245 157.91H401.511L395.633 162.18L397.878 169.09L392 164.82L386.122 169.09L388.367 162.18L382.489 157.91H389.755L392 151Z" fill="#D3CAFF"/>
<path d="M489.737 222.152L490.748 229.347L497.903 230.608L491.373 233.793L492.384 240.988L487.337 235.762L480.807 238.947L484.218 232.532L479.171 227.305L486.326 228.567L489.737 222.152Z" fill="#D3CAFF"/>
<path d="M612 79L614.245 85.9098H621.511L615.633 90.1803L617.878 97.0902L612 92.8197L606.122 97.0902L608.367 90.1803L602.489 85.9098H609.755L612 79Z" fill="#D3CAFF"/>
<path d="M478 12L480.245 18.9098H487.511L481.633 23.1803L483.878 30.0902L478 25.8197L472.122 30.0902L474.367 23.1803L468.489 18.9098H475.755L478 12Z" fill="#D3CAFF"/>
<path d="M876.264 2.15195L879.675 8.56694L886.83 7.30531L881.783 12.5316L885.193 18.9466L878.663 15.7617L873.616 20.988L874.628 13.7932L868.097 10.6083L875.252 9.34666L876.264 2.15195Z" fill="#D3CAFF"/>
<path d="M992 99L994.245 105.91H1001.51L995.633 110.18L997.878 117.09L992 112.82L986.122 117.09L988.367 110.18L982.489 105.91H989.755L992 99Z" fill="#D3CAFF"/>
<path d="M738 22L740.245 28.9098H747.511L741.633 33.1803L743.878 40.0902L738 35.8197L732.122 40.0902L734.367 33.1803L728.489 28.9098H735.755L738 22Z" fill="#D3CAFF"/>
<path d="M1048 273L1050.25 279.91H1057.51L1051.63 284.18L1053.88 291.09L1048 286.82L1042.12 291.09L1044.37 284.18L1038.49 279.91H1045.75L1048 273Z" fill="#D3CAFF"/>
<path d="M1164.26 395.152L1167.67 401.567L1174.83 400.305L1169.78 405.532L1173.19 411.947L1166.66 408.762L1161.62 413.988L1162.63 406.793L1156.1 403.608L1163.25 402.347L1164.26 395.152Z" fill="#D3CAFF"/>
<path d="M849 552L851.245 558.91H858.511L852.633 563.18L854.878 570.09L849 565.82L843.122 570.09L845.367 563.18L839.489 558.91H846.755L849 552Z" fill="#D3CAFF"/>
<path d="M1167.74 253.152L1168.75 260.347L1175.9 261.608L1169.37 264.793L1170.38 271.988L1165.34 266.762L1158.81 269.947L1162.22 263.532L1157.17 258.305L1164.33 259.567L1167.74 253.152Z" fill="#D3CAFF"/>
<path d="M1142 161L1144.25 167.91H1151.51L1145.63 172.18L1147.88 179.09L1142 174.82L1136.12 179.09L1138.37 172.18L1132.49 167.91H1139.75L1142 161Z" fill="#D3CAFF"/>
<path d="M1239 119L1241.25 125.91H1248.51L1242.63 130.18L1244.88 137.09L1239 132.82L1233.12 137.09L1235.37 130.18L1229.49 125.91H1236.75L1239 119Z" fill="#D3CAFF"/>
<path d="M1162 69L1164.25 75.9098H1171.51L1165.63 80.1803L1167.88 87.0902L1162 82.8197L1156.12 87.0902L1158.37 80.1803L1152.49 75.9098H1159.75L1162 69Z" fill="#D3CAFF"/>
<path d="M1315 59L1317.25 65.9098H1324.51L1318.63 70.1803L1320.88 77.0902L1315 72.8197L1309.12 77.0902L1311.37 70.1803L1305.49 65.9098H1312.75L1315 59Z" fill="#D3CAFF"/>
<path d="M1490.26 151.152L1493.67 157.567L1500.83 156.305L1495.78 161.532L1499.19 167.947L1492.66 164.762L1487.62 169.988L1488.63 162.793L1482.1 159.608L1489.25 158.347L1490.26 151.152Z" fill="#D3CAFF"/>
<path d="M1367.74 317.152L1368.75 324.347L1375.9 325.608L1369.37 328.793L1370.38 335.988L1365.34 330.762L1358.81 333.947L1362.22 327.532L1357.17 322.305L1364.33 323.567L1367.74 317.152Z" fill="#D3CAFF"/>
<path d="M1503.74 395.152L1504.75 402.347L1511.9 403.608L1505.37 406.793L1506.38 413.988L1501.34 408.762L1494.81 411.947L1498.22 405.532L1493.17 400.305L1500.33 401.567L1503.74 395.152Z" fill="#D3CAFF"/>
<path d="M1335 415L1337.25 421.91H1344.51L1338.63 426.18L1340.88 433.09L1335 428.82L1329.12 433.09L1331.37 426.18L1325.49 421.91H1332.75L1335 415Z" fill="#D3CAFF"/>
<path d="M1295 530L1297.25 536.91H1304.51L1298.63 541.18L1300.88 548.09L1295 543.82L1289.12 548.09L1291.37 541.18L1285.49 536.91H1292.75L1295 530Z" fill="#D3CAFF"/>
<path d="M1153.74 525.152L1154.75 532.347L1161.9 533.608L1155.37 536.793L1156.38 543.988L1151.34 538.762L1144.81 541.947L1148.22 535.532L1143.17 530.305L1150.33 531.567L1153.74 525.152Z" fill="#D3CAFF"/>
<path d="M1502 525L1504.25 531.91H1511.51L1505.63 536.18L1507.88 543.09L1502 538.82L1496.12 543.09L1498.37 536.18L1492.49 531.91H1499.75L1502 525Z" fill="#D3CAFF"/>
<path d="M983.737 385.152L984.748 392.347L991.903 393.608L985.373 396.793L986.384 403.988L981.337 398.762L974.807 401.947L978.218 395.532L973.171 390.305L980.326 391.567L983.737 385.152Z" fill="#D3CAFF"/>
</svg>
